<?xml version="1.0" standalone="no"?><!-- Generator: Gravit.io --><svg xmlns="http://www.w3.org/2000/svg" xmlns:xlink="http://www.w3.org/1999/xlink" style="isolation:isolate" viewBox="0 0 32 32" width="32" height="32"><defs><clipPath id="_clipPath_qZarXOlxHxsTEF9ehqCjngDQKvHwcENF"><rect width="32" height="32"/></clipPath></defs><g clip-path="url(#_clipPath_qZarXOlxHxsTEF9ehqCjngDQKvHwcENF)"><clipPath id="_clipPath_6ydLE1i67EBsVTYRYFNKQz5IlS43jTX8"><rect x="0" y="0" width="32" height="32" transform="matrix(1,0,0,1,0,0)" id="Retângulo" fill="rgb(255,255,255)"/></clipPath><g clip-path="url(#_clipPath_6ydLE1i67EBsVTYRYFNKQz5IlS43jTX8)"><g id="Grupo"><clipPath id="_clipPath_SlPVWvlltsg4auLge7a3tQUSSnmPM9Ba"><rect x="0" y="0" width="32" height="32" transform="matrix(1,0,0,1,0,0)" id="Retângulo" fill="rgb(255,255,255)"/></clipPath><g clip-path="url(#_clipPath_SlPVWvlltsg4auLge7a3tQUSSnmPM9Ba)"><g id="Grupo"><g id="Grupo"><rect x="0" y="0" width="32" height="32" transform="matrix(1,0,0,1,0,0)" id="Retângulo" fill="none"/><path d=" M 9.88 11.453 L 16 17.56 L 22.12 11.453 L 24 13.333 L 16 21.333 L 8 13.333 L 9.88 11.453 L 9.88 11.453 L 9.88 11.453 Z " id="Traço" fill="rgb(13,159,255)"/><path d=" M 0 0 L 32 0 L 32 32 L 0 32 L 0 0 L 0 0 L 0 0 Z " id="Traço" fill="none"/></g></g></g></g></g></g></svg>