<?xml version="1.0" standalone="no"?><!-- Generator: Gravit.io --><svg xmlns="http://www.w3.org/2000/svg" xmlns:xlink="http://www.w3.org/1999/xlink" style="isolation:isolate" viewBox="0 0 143 49.025" width="143" height="49.025"><defs><clipPath id="_clipPath_YkOdQjSd2MLOmz9EWpMZRH5LzU3bAckJ"><rect width="143" height="49.025"/></clipPath></defs><g clip-path="url(#_clipPath_YkOdQjSd2MLOmz9EWpMZRH5LzU3bAckJ)"><path d=" M 24.838 38.479 L 18.967 38.479 L 17.104 32.361 L 7.734 32.361 L 5.871 38.479 L 0 38.479 L 9.07 12.674 L 15.732 12.674 L 24.838 38.479 L 24.838 38.479 Z  M 9.105 27.791 L 15.803 27.791 L 15.803 27.791 Q 13.219 19.477 12.894 18.387 L 12.894 18.387 L 12.894 18.387 Q 12.568 17.297 12.428 16.664 L 12.428 16.664 L 12.428 16.664 Q 11.848 18.914 9.105 27.791 L 9.105 27.791 L 9.105 27.791 Z  M 38.443 38.83 L 38.443 38.83 L 38.443 38.83 Q 34.98 38.83 33.012 36.316 L 33.012 36.316 L 32.73 36.316 L 32.73 36.316 Q 33.012 38.777 33.012 39.164 L 33.012 39.164 L 33.012 47.127 L 27.65 47.127 L 27.65 18.826 L 32.01 18.826 L 32.766 21.375 L 33.012 21.375 L 33.012 21.375 Q 34.893 18.457 38.584 18.457 L 38.584 18.457 L 38.584 18.457 Q 42.064 18.457 44.033 21.146 L 44.033 21.146 L 44.033 21.146 Q 46.002 23.836 46.002 28.617 L 46.002 28.617 L 46.002 28.617 Q 46.002 31.764 45.079 34.084 L 45.079 34.084 L 45.079 34.084 Q 44.156 36.404 42.451 37.617 L 42.451 37.617 L 42.451 37.617 Q 40.746 38.83 38.443 38.83 Z  M 36.861 22.746 L 36.861 22.746 L 36.861 22.746 Q 34.875 22.746 33.961 23.968 L 33.961 23.968 L 33.961 23.968 Q 33.047 25.189 33.012 28.002 L 33.012 28.002 L 33.012 28.582 L 33.012 28.582 Q 33.012 31.746 33.952 33.117 L 33.952 33.117 L 33.952 33.117 Q 34.893 34.488 36.932 34.488 L 36.932 34.488 L 36.932 34.488 Q 40.535 34.488 40.535 28.547 L 40.535 28.547 L 40.535 28.547 Q 40.535 25.646 39.647 24.196 L 39.647 24.196 L 39.647 24.196 Q 38.76 22.746 36.861 22.746 Z  M 61.225 38.83 L 61.225 38.83 L 61.225 38.83 Q 57.762 38.83 55.793 36.316 L 55.793 36.316 L 55.512 36.316 L 55.512 36.316 Q 55.793 38.777 55.793 39.164 L 55.793 39.164 L 55.793 47.127 L 50.432 47.127 L 50.432 18.826 L 54.791 18.826 L 55.547 21.375 L 55.793 21.375 L 55.793 21.375 Q 57.674 18.457 61.365 18.457 L 61.365 18.457 L 61.365 18.457 Q 64.846 18.457 66.814 21.146 L 66.814 21.146 L 66.814 21.146 Q 68.783 23.836 68.783 28.617 L 68.783 28.617 L 68.783 28.617 Q 68.783 31.764 67.86 34.084 L 67.86 34.084 L 67.86 34.084 Q 66.938 36.404 65.232 37.617 L 65.232 37.617 L 65.232 37.617 Q 63.527 38.83 61.225 38.83 Z  M 59.643 22.746 L 59.643 22.746 L 59.643 22.746 Q 57.656 22.746 56.742 23.968 L 56.742 23.968 L 56.742 23.968 Q 55.828 25.189 55.793 28.002 L 55.793 28.002 L 55.793 28.582 L 55.793 28.582 Q 55.793 31.746 56.733 33.117 L 56.733 33.117 L 56.733 33.117 Q 57.674 34.488 59.713 34.488 L 59.713 34.488 L 59.713 34.488 Q 63.316 34.488 63.316 28.547 L 63.316 28.547 L 63.316 28.547 Q 63.316 25.646 62.429 24.196 L 62.429 24.196 L 62.429 24.196 Q 61.541 22.746 59.643 22.746 Z " fill-rule="evenodd" id="Traço Composto" fill="rgb(13,159,255)"/><path d=" M 90.809 28.617 L 90.809 38.479 L 85.447 38.479 L 85.447 27 L 85.447 27 Q 85.447 24.873 84.735 23.81 L 84.735 23.81 L 84.735 23.81 Q 84.023 22.746 82.494 22.746 L 82.494 22.746 L 82.494 22.746 Q 80.438 22.746 79.506 24.258 L 79.506 24.258 L 79.506 24.258 Q 78.574 25.77 78.574 29.232 L 78.574 29.232 L 78.574 38.479 L 73.213 38.479 L 73.213 18.826 L 77.309 18.826 L 78.029 21.34 L 78.328 21.34 L 78.328 21.34 Q 79.119 19.986 80.613 19.222 L 80.613 19.222 L 80.613 19.222 Q 82.107 18.457 84.041 18.457 L 84.041 18.457 L 84.041 18.457 Q 88.453 18.457 90.018 21.34 L 90.018 21.34 L 90.492 21.34 L 90.492 21.34 Q 91.283 19.969 92.821 19.213 L 92.821 19.213 L 92.821 19.213 Q 94.359 18.457 96.293 18.457 L 96.293 18.457 L 96.293 18.457 Q 99.633 18.457 101.347 20.171 L 101.347 20.171 L 101.347 20.171 Q 103.061 21.885 103.061 25.664 L 103.061 25.664 L 103.061 38.479 L 97.682 38.479 L 97.682 27 L 97.682 27 Q 97.682 24.873 96.97 23.81 L 96.97 23.81 L 96.97 23.81 Q 96.258 22.746 94.729 22.746 L 94.729 22.746 L 94.729 22.746 Q 92.76 22.746 91.784 24.152 L 91.784 24.152 L 91.784 24.152 Q 90.809 25.559 90.809 28.617 L 90.809 28.617 L 90.809 28.617 Z  M 108.334 13.746 L 108.334 13.746 L 108.334 13.746 Q 108.334 11.127 111.252 11.127 L 111.252 11.127 L 111.252 11.127 Q 114.17 11.127 114.17 13.746 L 114.17 13.746 L 114.17 13.746 Q 114.17 14.994 113.44 15.688 L 113.44 15.688 L 113.44 15.688 Q 112.711 16.383 111.252 16.383 L 111.252 16.383 L 111.252 16.383 Q 108.334 16.383 108.334 13.746 Z  M 113.924 18.826 L 113.924 38.479 L 108.563 38.479 L 108.563 18.826 L 113.924 18.826 L 113.924 18.826 Z  M 137.689 25.664 L 137.689 38.479 L 132.328 38.479 L 132.328 27 L 132.328 27 Q 132.328 24.873 131.572 23.81 L 131.572 23.81 L 131.572 23.81 Q 130.816 22.746 129.164 22.746 L 129.164 22.746 L 129.164 22.746 Q 126.914 22.746 125.912 24.249 L 125.912 24.249 L 125.912 24.249 Q 124.91 25.752 124.91 29.232 L 124.91 29.232 L 124.91 38.479 L 119.549 38.479 L 119.549 18.826 L 123.645 18.826 L 124.365 21.34 L 124.664 21.34 L 124.664 21.34 Q 125.561 19.916 127.134 19.187 L 127.134 19.187 L 127.134 19.187 Q 128.707 18.457 130.711 18.457 L 130.711 18.457 L 130.711 18.457 Q 134.139 18.457 135.914 20.312 L 135.914 20.312 L 135.914 20.312 Q 137.689 22.166 137.689 25.664 L 137.689 25.664 L 137.689 25.664 Z " fill-rule="evenodd" id="Traço Composto" fill="rgb(0,0,0)"/></g></svg>