<?xml version="1.0" standalone="no"?><!-- Generator: Gravit.io --><svg xmlns="http://www.w3.org/2000/svg" xmlns:xlink="http://www.w3.org/1999/xlink" style="isolation:isolate" viewBox="0 0 32 32" width="32" height="32"><defs><clipPath id="_clipPath_Tsxn6CMB3oR5EieedwgEpXVdrFG2PMbJ"><rect width="32" height="32"/></clipPath></defs><g clip-path="url(#_clipPath_Tsxn6CMB3oR5EieedwgEpXVdrFG2PMbJ)"><clipPath id="_clipPath_0Uxqq2IFUkm4laKtscMvM3EOfc6Q4MYj"><rect x="0" y="0" width="32" height="32" transform="matrix(1,0,0,1,0,0)" id="Retângulo" fill="rgb(255,255,255)"/></clipPath><g clip-path="url(#_clipPath_0Uxqq2IFUkm4laKtscMvM3EOfc6Q4MYj)"><g id="Grupo"><path d=" M 0 0 L 32 0 L 32 32 L 0 32 L 0 0 Z " id="Traço" fill="none"/><path d=" M 4 24 L 28 24 L 28 21.333 L 4 21.333 L 4 24 L 4 24 Z  M 4 17.333 L 28 17.333 L 28 14.667 L 4 14.667 L 4 17.333 L 4 17.333 Z  M 4 8 L 4 10.667 L 28 10.667 L 28 8 L 4 8 L 4 8 Z " id="Traço Composto" fill="rgb(51,51,51)"/></g></g></g></svg>