<?xml version="1.0" standalone="no"?><!-- Generator: Gravit.io --><svg xmlns="http://www.w3.org/2000/svg" xmlns:xlink="http://www.w3.org/1999/xlink" style="isolation:isolate" viewBox="0 0 60 60" width="60" height="60"><defs><clipPath id="_clipPath_BNo6InGWgjDeO2rjlucXZOuKS6RyQeqr"><rect width="60" height="60"/></clipPath></defs><g clip-path="url(#_clipPath_BNo6InGWgjDeO2rjlucXZOuKS6RyQeqr)"><clipPath id="_clipPath_oCoXowSLEP9UmFLIpPWYcBFY2KMA7UwO"><rect x="0" y="0" width="60" height="60" transform="matrix(1,0,0,1,0,0)" fill="rgb(255,255,255)"/></clipPath><g clip-path="url(#_clipPath_oCoXowSLEP9UmFLIpPWYcBFY2KMA7UwO)"><g><g><path d=" M 10 30 C 10 18.963 18.963 10 30 10 C 41.037 10 50 18.963 50 30 C 50 41.037 41.037 50 30 50 C 18.963 50 10 41.037 10 30 Z " fill="rgb(238,234,234)"/><path d=" M 30 5 C 16.2 5 5 16.2 5 30 C 5 43.8 16.2 55 30 55 C 43.8 55 55 43.8 55 30 C 55 16.2 43.8 5 30 5 Z  M 30 12.5 C 34.15 12.5 37.5 15.85 37.5 20 C 37.5 24.15 34.15 27.5 30 27.5 C 25.85 27.5 22.5 24.15 22.5 20 C 22.5 15.85 25.85 12.5 30 12.5 Z  M 30 48 C 23.75 48 18.225 44.8 15 39.95 C 15.075 34.975 25 32.25 30 32.25 C 34.975 32.25 44.925 34.975 45 39.95 C 41.775 44.8 36.25 48 30 48 Z " fill="rgb(255,255,255)"/><path d=" M 0 0 L 60 0 L 60 60 L 0 60 L 0 0 Z " fill="none"/></g></g></g></g></svg>